<?xml version="1.0" standalone="no"?><!DOCTYPE svg PUBLIC "-//W3C//DTD SVG 1.1//EN" "http://www.w3.org/Graphics/SVG/1.1/DTD/svg11.dtd"><svg t="1708569095250" class="icon" viewBox="0 0 1024 1024" version="1.1" xmlns="http://www.w3.org/2000/svg" p-id="18100" xmlns:xlink="http://www.w3.org/1999/xlink" width="200" height="200"><path d="M897.861818 438.225455l-48.407273-14.661819a338.152727 338.152727 0 0 0-36.538181-87.738181l23.272727-44.45091a46.545455 46.545455 0 0 0-8.145455-54.923636l-40.494545-41.425454A46.545455 46.545455 0 0 0 732.625455 186.181818l-44.45091 23.272727a329.076364 329.076364 0 0 0-87.738181-34.676363l-14.661819-48.64A46.545455 46.545455 0 0 0 541.323636 93.090909h-58.647272a46.545455 46.545455 0 0 0-44.450909 33.047273L423.563636 174.545455a330.24 330.24 0 0 0-87.738181 36.538181L291.374545 186.181818a46.545455 46.545455 0 0 0-54.923636 7.912727l-41.425454 42.356364A46.545455 46.545455 0 0 0 186.181818 291.374545l23.272727 44.45091a336.756364 336.756364 0 0 0-34.676363 87.738181l-48.64 14.661819A46.545455 46.545455 0 0 0 93.090909 482.676364v58.647272a46.545455 46.545455 0 0 0 33.047273 44.450909l48.407273 14.661819a338.152727 338.152727 0 0 0 36.538181 87.738181L186.181818 732.625455a46.545455 46.545455 0 0 0 8.145455 54.923636l41.425454 41.425454a46.545455 46.545455 0 0 0 54.923637 7.912728l44.450909-23.272728a329.076364 329.076364 0 0 0 87.738182 36.072728l14.661818 48.64a46.545455 46.545455 0 0 0 45.149091 32.581818h58.647272a46.545455 46.545455 0 0 0 44.450909-33.047273l14.661819-48.407273a330.24 330.24 0 0 0 87.738181-36.538181l44.45091 23.272727a46.545455 46.545455 0 0 0 54.923636-7.912727l41.425454-41.425455a46.545455 46.545455 0 0 0 8.843637-54.225454l-23.272727-44.45091a336.756364 336.756364 0 0 0 36.072727-87.738181l48.64-14.661819A46.545455 46.545455 0 0 0 930.909091 541.323636v-58.647272a46.545455 46.545455 0 0 0-33.047273-44.450909z m-61.905454 117.527272a46.545455 46.545455 0 0 0-31.418182 32.814546 302.545455 302.545455 0 0 1-31.418182 76.101818 46.545455 46.545455 0 0 0 0 46.545454l23.272727 44.45091-41.658182 40.261818-44.683636-23.272728a46.545455 46.545455 0 0 0-46.545454 0 305.338182 305.338182 0 0 1-75.869091 31.418182 46.545455 46.545455 0 0 0-33.047273 31.418182l-13.265455 48.872727h-58.414545l-14.661818-48.407272a46.545455 46.545455 0 0 0-33.047273-31.418182 305.338182 305.338182 0 0 1-75.869091-31.418182 46.545455 46.545455 0 0 0-23.272727-6.516364 46.545455 46.545455 0 0 0-21.643637 5.352728l-44.450909 23.272727-41.890909-40.494546 23.272728-44.683636a46.545455 46.545455 0 0 0-1.163637-46.545454 302.545455 302.545455 0 0 1-31.418182-76.101819 46.545455 46.545455 0 0 0-31.418181-32.814545L139.636364 541.323636v-58.414545l48.407272-14.661818a46.545455 46.545455 0 0 0 31.418182-32.814546 302.545455 302.545455 0 0 1 31.418182-76.101818 46.545455 46.545455 0 0 0 1.163636-45.381818l-23.272727-44.450909 40.494546-41.425455 44.683636 23.272728a46.545455 46.545455 0 0 0 45.381818-1.163637 305.338182 305.338182 0 0 1 75.869091-30.72 46.545455 46.545455 0 0 0 33.047273-31.418182L482.676364 139.636364h58.414545l14.661818 48.407272a46.545455 46.545455 0 0 0 33.047273 31.418182 305.338182 305.338182 0 0 1 75.869091 31.418182 46.545455 46.545455 0 0 0 46.545454 1.163636l44.45091-23.272727 41.425454 41.425455-23.272727 44.683636a46.545455 46.545455 0 0 0 0 45.381818 302.545455 302.545455 0 0 1 31.418182 76.101818 46.545455 46.545455 0 0 0 31.418181 32.814546l48.407273 14.429091v58.414545z" p-id="18101"></path><path d="M512 325.818182a186.181818 186.181818 0 1 0 186.181818 186.181818 186.181818 186.181818 0 0 0-186.181818-186.181818z m0 325.818182a139.636364 139.636364 0 1 1 139.636364-139.636364 139.636364 139.636364 0 0 1-139.636364 139.636364z" p-id="18102"></path></svg>