<?xml version="1.0" standalone="no"?><!DOCTYPE svg PUBLIC "-//W3C//DTD SVG 1.1//EN" "http://www.w3.org/Graphics/SVG/1.1/DTD/svg11.dtd"><svg t="1708569068206" class="icon" viewBox="0 0 1024 1024" version="1.1" xmlns="http://www.w3.org/2000/svg" p-id="16050" xmlns:xlink="http://www.w3.org/1999/xlink" width="200" height="200"><path d="M294.352213 301.161813c0 116.483413 94.35136 210.838187 210.838187 210.838187 116.483413 0 210.838187-94.354773 210.838187-210.838187s-94.354773-210.838187-210.838187-210.838186c-116.486827 0-210.838187 94.354773-210.838187 210.838186zM127.44704 827.671893v0z m0-1.327786v0z m0-0.334507s0 0.167253 0 0z m755.48672 2.6624v-0.334507 0.334507z m0-0.498347v-0.6656 0.6656z m-755.48672 0.498347v0z m569.10848-271.909547l-17.3056-0.167253c-5.9904 0-15.305387 2.331307-20.6336 5.16096 0 0-13.810347 7.9872-26.456747 13.308587-37.77536 16.308907-80.71168 25.627307-126.470826 25.627306-45.431467 0-88.364373-9.151147-125.969067-25.2928-12.813653-5.48864-26.958507-13.643093-26.958507-13.643093-5.3248-2.996907-14.47936-5.328213-20.6336-5.16096l-17.138346 0.167253c-69.05856 9.15456-141.612373 70.38976-162.413227 136.618667 0 0-22.132053 44.762453-25.296213 132.625067-0.167253 11.47904 8.987307 25.9584 20.800853 32.116053 0 0 117.650773 75.547307 356.775253 75.547307 239.291733 0 356.775253-75.547307 356.775254-75.547307 11.649707-6.324907 21.131947-22.299307 20.800853-32.45056-2.993493-87.53152-24.459947-130.464427-24.459947-130.464427-18.967893-66.556587-92.521813-128.293547-161.416533-138.4448z m186.37824 269.581654v-0.498347 0.498347z m0 1.163946v-0.82944 0.82944z" fill="#888888" p-id="16051"></path></svg>