<?xml version="1.0" standalone="no"?><!DOCTYPE svg PUBLIC "-//W3C//DTD SVG 1.1//EN" "http://www.w3.org/Graphics/SVG/1.1/DTD/svg11.dtd">
        <svg fill="#000000" xmlns:x="http://ns.adobe.com/Extensibility/1.0/" xmlns:i="http://ns.adobe.com/AdobeIllustrator/10.0/" xmlns:graph="http://ns.adobe.com/Graphs/1.0/" xmlns="http://www.w3.org/2000/svg" xmlns:xlink="http://www.w3.org/1999/xlink" version="1.1" x="0" y="0"  style="overflow: visible;" xml:space="preserve"  filtersec="colorsf455352536" filter="url(#sBgaouJRNbDCUfAO4-Bln)" width="200px" height="40px">
        <g data-v-0dd9719b="" fill="#333"><g><g transform="translate(0, 2.852806547929365)"><g transform="scale(1)" fill="rgb(30, 161, 201)"><path d="M15.03 0.03L10.04 0.03 10.01 0 2.37-23.71 2.37-23.74 2.41-23.74 7.39-23.74 7.39-23.71 12.52-7.8 17.64-23.71 17.64-23.74 17.64-23.74 17.67-23.74 22.66-23.74 22.66-23.74 22.66-23.74 22.66-23.71 27.78-7.8 32.9-23.71 32.93-23.74 37.92-23.74 37.92-23.74 37.92-23.71 30.29 0 30.29 0.03 25.3 0.03 25.27 0 20.15-15.91 15.03 0 15.03 0.03ZM62.98-23.74L62.98-23.74 62.98-23.71 55.66-11.87 62.98 0 62.98 0 62.98 0.03 57.39 0.03 57.39 0 52.84-7.29 48.33 0 48.3 0.03 42.74 0.03 42.7 0 42.7 0 50.03-11.87 42.7-23.71 42.7-23.74 42.74-23.74 48.3-23.74 48.33-23.74 52.84-16.42 57.39-23.74 57.39-23.74 62.98-23.74Z" transform="translate(-2.369999885559082, 28.489999771118164)"></path></g></g> <g transform="translate(63.61000061035156, 0)"><g><g class="imagesvg"><g><rect fill="#333" fill-opacity="0" stroke-width="2" x="0" y="0" width="29.74375011974764" height="34.229530030206156" class="image-rect"></rect> <svg x="0" y="0" width="29.74375011974764" height="34.229530030206156" filtersec="colorsb4285966664" class="image-svg-svg primary" style="overflow: visible;"><svg xmlns="http://www.w3.org/2000/svg" viewBox="-0.015953563153743744 -0.010087404400110245 163.6039276123047 188.27760314941406"><path d="M.05 117.82V95.54c0-.39-.22-.91.17-1.12s.65.26 1 .44q9.72 5.69 19.43 11.4c7 4.1 13.94 8.24 20.93 12.32 7.3 4.25 14.62 8.44 21.94 12.66l14.65 8.46c.72.41.71.59 0 1.05q-8 4.78-15.94 9.57c-5.61 3.37-11.2 6.77-16.8 10.15-1.81 1.09-3.65 2.15-5.46 3.26a.87.87 0 0 1-1 0q-8.61-5-17.24-10l-15.49-8.79c-1.86-1.07-3.7-2.18-5.58-3.23a1.28 1.28 0 0 1-.66-1.33q.06-11.28.05-22.56z" fill="#1ea1c9"></path><path d="M163.54 70.19v22.37c0 .29.17.69-.13.87s-.55-.18-.81-.33l-34.53-19.92-38.81-22.4-3.81-2.2c-.92-.52-.93-.53-.06-1l22.19-13.37q7.9-4.75 15.78-9.53a1.31 1.31 0 0 1 1.52 0q18.78 10.88 37.6 21.7a1.88 1.88 0 0 1 1.08 1.9c-.04 7.24-.02 14.57-.02 21.91z" fill="#1e89e3"></path><path d="M122.91 141.22c0-7.27-.12-14.54 0-21.81.3-15 0-29.94.13-44.91 0-.84.2-.87.86-.48l29.64 17.13c3.08 1.78 6.15 3.57 9.24 5.32a1.25 1.25 0 0 1 .74 1.25v42.77a1.31 1.31 0 0 1-.79 1.31l-29.64 17.12c-3.07 1.78-6.16 3.54-9.24 5.32-.89.51-1 .47-1-.55q.06-11.24.06-22.47z" fill="#1ea1c9"></path><path d="M43.15 45.19V22.91a1.31 1.31 0 0 1 .77-1.32Q62.28 11 80.6.4A2 2 0 0 1 83 .38q18.72 10.89 37.5 21.69c.66.38.84.55 0 1-21.08 12.64-42 25.51-63.4 37.63-4.29 2.42-8.54 4.92-12.81 7.38-1 .56-1 .55-1-.54V52.65v-7.49z" fill="#1e89e3"></path><path d="M40.32 36.88c0 3.84-.06 7.68 0 11.52.38 21.65.06 43.3.17 64.94 0 1.31 0 1.33-1.15.66-3.61-2.15-7.17-4.38-10.83-6.44-4.47-2.52-8.85-5.18-13.29-7.75C10.33 97 5.48 94.06.59 91.21 0 90.88.05 90.45.05 90V71.05 47.83a1.44 1.44 0 0 1 .82-1.4q5.39-3.07 10.76-6.16l11.94-6.89 11.3-6.55c1.56-.91 3.15-1.76 4.69-2.7.73-.44.77-.1.77.49v12.31zM120.1 143.1v22.37a1.48 1.48 0 0 1-.87 1.46Q101.6 177.1 84 187.33c-2.15 1.24-2.15 1.26-4.29 0l-27.71-16-9-5.18c-.23-.13-.6-.18-.6-.51s.37-.38.6-.52q15.33-9.24 30.67-18.48c8-4.8 16.07-9.44 24.15-14.08q10.69-6.15 21.37-12.35c.9-.52.9-.51.9.52q.03 11.19.01 22.37zM82.08 124.84c-.18.22-.38.16-.58 0-2.89-1.7-5.77-3.41-8.67-5.09-4-2.34-8.08-4.64-12.12-7-2-1.16-4-2.35-6.06-3.48-.54-.3-.49-.73-.49-1.19V84.57v-5.61c0-.27-.19-.65.27-.78 1.83 1 3.66 2 5.5 3 5.13 2.7 10.24 5.4 15.39 8.06 2.15 1.11 4.24 2.36 6.48 3.29v31.4c.06.29-.06.66.28.91z" fill="#1ea1c9"></path><path d="M82.08 124.84c-.34-.25-.22-.62-.22-1V93.75v-1.31a34.61 34.61 0 0 0 3.5-1.75c1.87-1 3.73-1.94 5.59-2.91L98.13 84q3.62-1.91 7.24-3.78c1.26-.65 2.54-1.27 3.81-1.91.47.14.23.52.23.77v29.1a1.25 1.25 0 0 1-.73 1.24q-13 7.51-26.07 15z" fill="#1e89e3"></path><path d="M109.18 78.34c-1.27.64-2.55 1.26-3.81 1.91q-3.63 1.88-7.24 3.78l-7.23 3.8c-1.86 1-3.72 2-5.59 2.91a34.61 34.61 0 0 1-3.5 1.75c-2.24-.93-4.33-2.18-6.48-3.29-5.15-2.66-10.26-5.36-15.39-8.06-1.84-1-3.67-2-5.5-3 0-.58.57-.64.9-.82 8.58-4.91 17.18-9.77 25.77-14.66a1.13 1.13 0 0 1 1.29-.06q13.06 7.47 26.16 14.92a3.3 3.3 0 0 1 .3.22.24.24 0 0 0 .25.18.29.29 0 0 1 .07.42z" fill="#1e89e3"></path><path d="M109.11 78a.24.24 0 0 1-.25-.18z" fill="#42a5f5"></path></svg></svg></g></g></g></g> <g fill="#2951ca" transform="translate(96.35375022888184, 2.852806547929365)" style="fill: rgb(41, 81, 202);"><g transform="scale(1)"><path d="M7.39 0.03L2.41 0.03 2.37 0 2.37 0 10.01-23.71 10.04-23.74 15.03-23.74 15.03-23.71 22.66 0 22.66 0 22.66 0.03 17.67 0.03 17.64 0 16.59-3.22 8.45-3.22 7.39 0 7.39 0.03ZM9.97-8L15.06-8 12.52-15.91 9.97-8ZM35.85 0.03L27.47 0.03Q27.44 0.03 27.44 0L27.44 0 27.44-23.71Q27.44-23.74 27.47-23.74L27.47-23.74 35.85-23.74Q38.29-23.74 40.46-22.81 42.63-21.88 44.25-20.27 45.86-18.65 46.79-16.48 47.72-14.31 47.72-11.87L47.72-11.87Q47.72-9.4 46.79-7.24 45.86-5.09 44.25-3.46 42.63-1.83 40.46-0.9 38.29 0.03 35.85 0.03L35.85 0.03ZM32.22-18.96L32.22-4.78 35.85-4.78Q37.31-4.78 38.6-5.33 39.89-5.87 40.85-6.83 41.82-7.8 42.38-9.09 42.94-10.38 42.94-11.87L42.94-11.87Q42.94-13.33 42.38-14.62 41.82-15.91 40.85-16.87 39.89-17.84 38.6-18.4 37.31-18.96 35.85-18.96L35.85-18.96 32.22-18.96ZM97.78-23.74L102.53-23.74Q102.57-23.74 102.57-23.71L102.57-23.71 102.57 0Q102.57 0.03 102.53 0.03L102.53 0.03 96.97 0.03 96.94 0 87.07-15.98 87.07 0Q87.07 0.03 87.03 0.03L87.03 0.03 82.28 0.03Q82.25 0.03 82.25 0L82.25 0 82.25-23.71 77.57-23.71 77.57 0Q77.57 0.03 77.54 0.03L77.54 0.03 72.82 0.03Q72.79 0.03 72.79 0L72.79 0 72.79-15.98 65.05-3.49Q65.05-3.46 65.02-3.49L65.02-3.49 57.29-15.98 57.29 0Q57.29 0.03 57.25 0.03L57.25 0.03 52.54 0.03Q52.5 0.03 52.5 0L52.5 0 52.5-23.71Q52.5-23.74 52.54-23.74L52.54-23.74 58.1-23.74 58.13-23.74 65.05-12.55 71.94-23.74 71.97-23.74 77.54-23.74 77.54-28.46Q77.54-28.49 77.54-28.49L77.54-28.49 82.28-28.49Q82.32-28.49 82.32-28.46L82.32-28.46 82.32-23.74 87.88-23.74 87.88-23.74 97.75-7.77 97.75-23.71Q97.75-23.74 97.78-23.74L97.78-23.74Z" transform="translate(-2.369999885559082, 28.489999771118164)"></path></g></g></g><!----></g></svg>
