<?xml version="1.0" standalone="no"?><!DOCTYPE svg PUBLIC "-//W3C//DTD SVG 1.1//EN" "http://www.w3.org/Graphics/SVG/1.1/DTD/svg11.dtd">
<svg fill="#000000" xmlns:x="http://ns.adobe.com/Extensibility/1.0/" xmlns:i="http://ns.adobe.com/AdobeIllustrator/10.0/" xmlns:graph="http://ns.adobe.com/Graphs/1.0/" xmlns="http://www.w3.org/2000/svg" xmlns:xlink="http://www.w3.org/1999/xlink" version="1.1" x="0" y="0"  style="overflow: visible;" xml:space="preserve"  filtersec="colorsf455352536" filter="url(#sBgaouJRNbDCUfAO4-Bln)" width="50px" height="50px">
          <g data-v-0dd9719b="" fill="#00539f" class="icon-text-wrapper icon-svg-group iconsvg"><g fill="#00539f" class="iconsvg-imagesvg icon_container" >
            <svg viewBox="0 0 60 60.09675577680065" x="0" y="0" class="image-svg-svg bn" style="overflow: visible;"><g hollow-target="iconBnFill" mask="url(#a475a625-ff1e-4c94-bef3-9afa3b106a4f)"><g><svg fill="#000000" xmlns:x="http://ns.adobe.com/Extensibility/1.0/" xmlns:i="http://ns.adobe.com/AdobeIllustrator/10.0/" xmlns:graph="http://ns.adobe.com/Graphs/1.0/" xmlns="http://www.w3.org/2000/svg" xmlns:xlink="http://www.w3.org/1999/xlink" version="1.1" x="0" y="0" viewBox="4.96937 4.89669 90.06126 90.20661" style="overflow: visible;" xml:space="preserve" width="60" height="60.09675577680065" filtersec="colorsf455352536" filter="url(#sBgaouJRNbDCUfAO4-Bln)"><g ><g><g i:extraneous="self"><path class="st0" d="M95,44c-0.4-2.6-3-4.6-3.8-7c-0.8-2.5,0.2-5.6-1-7.9c-1.2-2.3-4.4-3.3-6-5.3c-1.6-2-1.8-5.3-3.7-7.1    c-1.9-1.7-5.2-1.6-7.4-3c-2.2-1.4-3.5-4.4-5.9-5.4c-2.4-1-5.5,0.3-8-0.3c-2.5-0.5-4.8-3-7.4-3.1c-2.5-0.1-5,2.1-7.6,2.5    c-2.6,0.3-5.6-1.1-8-0.4c-2.5,0.8-4.1,3.7-6.3,4.9c-2.3,1.2-5.6,0.8-7.6,2.4c-2,1.6-2.5,4.9-4.2,6.7c-1.7,1.9-5,2.7-6.4,4.8    C10.3,28,11,31.3,10,33.7c-1,2.4-3.8,4.2-4.3,6.7c-0.5,2.5,1.2,5.3,1.1,7.9C6.7,50.7,4.7,53.4,5,56c0.4,2.6,3,4.6,3.8,7    c0.8,2.5-0.2,5.6,1,7.9c1.2,2.3,4.4,3.3,6,5.3c1.6,2,1.8,5.3,3.7,7.1c1.9,1.7,5.2,1.6,7.4,3c2.2,1.4,3.5,4.4,5.9,5.4    c2.4,1,5.5-0.3,8,0.3c2.5,0.5,4.8,3,7.4,3.1c2.5,0.1,5-2.1,7.6-2.5c2.6-0.3,5.6,1.1,8,0.4c2.5-0.8,4.1-3.7,6.3-4.9    c2.3-1.2,5.6-0.8,7.6-2.4c2-1.6,2.5-4.9,4.2-6.7c1.7-1.9,5-2.7,6.4-4.8c1.4-2.2,0.7-5.4,1.7-7.8c1-2.4,3.8-4.2,4.3-6.7    c0.5-2.5-1.2-5.3-1.1-7.9C93.3,49.3,95.3,46.6,95,44z"></path></g></g></g>
              <defs><filter id="sBgaouJRNbDCUfAO4-Bln"><feColorMatrix type="matrix" values="0 0 0 0 0  0 0 0 0 0.32421875  0 0 0 0 0.62109375  0 0 0 1 0"></feColorMatrix></filter></defs></svg></g> <g filter="url(#colors3382300367)"><svg xmlns="http://www.w3.org/2000/svg" xmlns:xlink="http://www.w3.org/1999/xlink" viewBox="0 0 117.00000000000001 48.02400000000001" width="45" height="45.07257" x="7.5" y="7.512092888400325" class="image-svg-letter"><path transform="translate(-0.9360000000000002 48.02400000000001)" d="M0.94-48.02L11.52-48.02L22.32-11.88L32.40-48.02L43.78-48.02L53.86-11.88L64.66-48.02L75.17-48.02L59.69 0L48.02 0L38.09-34.63L28.15 0L16.49 0L0.94-48.02ZM72.79 0L89.14-24.26L73.37-48.02L85.90-48.02L95.33-32.18L105.55-48.02L117.94-48.02L101.66-24.26L117.94 0L105.91 0L95.33-16.49L84.96 0L72.79 0Z"></path></svg></g></g><mask id="a475a625-ff1e-4c94-bef3-9afa3b106a4f"><g fill="white"><svg xmlns:x="http://ns.adobe.com/Extensibility/1.0/" xmlns:i="http://ns.adobe.com/AdobeIllustrator/10.0/" xmlns:graph="http://ns.adobe.com/Graphs/1.0/" xmlns="http://www.w3.org/2000/svg" xmlns:xlink="http://www.w3.org/1999/xlink" version="1.1" x="0" y="0" viewBox="4.96937 4.89669 90.06126 90.20661" style="overflow: visible;" xml:space="preserve" width="60" height="60.09675577680065" filtersec="colorsf455352536"><g transform="scale(1, 1) skewX(0)"><g><g i:extraneous="self"><path d="M95,44c-0.4-2.6-3-4.6-3.8-7c-0.8-2.5,0.2-5.6-1-7.9c-1.2-2.3-4.4-3.3-6-5.3c-1.6-2-1.8-5.3-3.7-7.1    c-1.9-1.7-5.2-1.6-7.4-3c-2.2-1.4-3.5-4.4-5.9-5.4c-2.4-1-5.5,0.3-8-0.3c-2.5-0.5-4.8-3-7.4-3.1c-2.5-0.1-5,2.1-7.6,2.5    c-2.6,0.3-5.6-1.1-8-0.4c-2.5,0.8-4.1,3.7-6.3,4.9c-2.3,1.2-5.6,0.8-7.6,2.4c-2,1.6-2.5,4.9-4.2,6.7c-1.7,1.9-5,2.7-6.4,4.8    C10.3,28,11,31.3,10,33.7c-1,2.4-3.8,4.2-4.3,6.7c-0.5,2.5,1.2,5.3,1.1,7.9C6.7,50.7,4.7,53.4,5,56c0.4,2.6,3,4.6,3.8,7    c0.8,2.5-0.2,5.6,1,7.9c1.2,2.3,4.4,3.3,6,5.3c1.6,2,1.8,5.3,3.7,7.1c1.9,1.7,5.2,1.6,7.4,3c2.2,1.4,3.5,4.4,5.9,5.4    c2.4,1,5.5-0.3,8,0.3c2.5,0.5,4.8,3,7.4,3.1c2.5,0.1,5-2.1,7.6-2.5c2.6-0.3,5.6,1.1,8,0.4c2.5-0.8,4.1-3.7,6.3-4.9    c2.3-1.2,5.6-0.8,7.6-2.4c2-1.6,2.5-4.9,4.2-6.7c1.7-1.9,5-2.7,6.4-4.8c1.4-2.2,0.7-5.4,1.7-7.8c1-2.4,3.8-4.2,4.3-6.7    c0.5-2.5-1.2-5.3-1.1-7.9C93.3,49.3,95.3,46.6,95,44z"></path></g></g></g><defs></defs></svg></g> <g fill="black"><svg xmlns="http://www.w3.org/2000/svg" xmlns:xlink="http://www.w3.org/1999/xlink" viewBox="0 0 117.00000000000001 48.02400000000001" width="45" height="45.07257" x="7.5" y="7.512092888400325" class="image-svg-letter"><path transform="translate(-0.9360000000000002 48.02400000000001)" d="M0.94-48.02L11.52-48.02L22.32-11.88L32.40-48.02L43.78-48.02L53.86-11.88L64.66-48.02L75.17-48.02L59.69 0L48.02 0L38.09-34.63L28.15 0L16.49 0L0.94-48.02ZM72.79 0L89.14-24.26L73.37-48.02L85.90-48.02L95.33-32.18L105.55-48.02L117.94-48.02L101.66-24.26L117.94 0L105.91 0L95.33-16.49L84.96 0L72.79 0Z"></path></svg></g></mask></svg> <defs><filter id="colors3382300367"><feColorMatrix type="matrix" values="0 0 0 0 0  0 0 0 0 0.32421875  0 0 0 0 0.62109375  0 0 0 1 0" class="icon-fecolormatrix"></feColorMatrix></filter> <filter id="colorsf455352536"><feColorMatrix type="matrix" values="0 0 0 0 0.99609375  0 0 0 0 0.99609375  0 0 0 0 0.99609375  0 0 0 1 0" class="icon-fecolormatrix"></feColorMatrix></filter> <filter id="colorsb2854440306"><feColorMatrix type="matrix" values="0 0 0 0 0  0 0 0 0 0  0 0 0 0 0  0 0 0 1 0" class="icon-fecolormatrix"></feColorMatrix></filter></defs></g> 
             </g>
        </svg>